<?xml version="1.0"?><svg fill="#000000" xmlns="http://www.w3.org/2000/svg"  viewBox="0 0 30 30" width="30px" height="30px">    <path d="M 5.9902344 9.2011719 C 5.4892344 9.2251719 4.8715781 9.5441875 4.5175781 9.9921875 C 4.1935781 10.379187 3.9163281 11.006703 3.9863281 11.595703 C 4.5523281 11.644703 5.1196563 11.301234 5.4726562 10.865234 C 5.8206562 10.416234 6.0492344 9.8151719 5.9902344 9.2011719 z M 10.800781 10.400391 L 10.800781 19.400391 L 12.224609 19.400391 L 12.224609 16.400391 L 14.175781 16.400391 C 15.965781 16.400391 17.25 15.155391 17.25 13.400391 C 17.25 11.645391 15.988656 10.400391 14.222656 10.400391 L 10.800781 10.400391 z M 12.224609 11.599609 L 13.875 11.599609 C 15.103 11.599609 15.824219 12.263391 15.824219 13.400391 C 15.824219 14.537391 15.109 15.199219 13.875 15.199219 L 12.224609 15.199219 L 12.224609 11.599609 z M 5.9257812 11.900391 C 5.1007812 11.900391 4.51 12.349609 4.125 12.349609 C 3.734 12.349609 3.1496094 11.904297 2.4746094 11.904297 C 1.6496094 11.904297 0.84201563 12.422734 0.41601562 13.177734 C -0.45898438 14.686734 0.18915625 16.921391 1.0351562 18.150391 C 1.4501563 18.758391 1.95 19.400391 2.625 19.400391 C 3.244 19.377391 3.4522187 19.025391 4.1992188 19.025391 C 4.9512187 19.025391 5.1746094 19.400391 5.8496094 19.400391 C 6.5246094 19.400391 6.9336562 18.781828 7.3476562 18.173828 C 7.8206562 17.483828 8.0133906 16.810391 8.0253906 16.775391 C 8.0143906 16.764391 6.7170781 16.266531 6.7050781 14.769531 C 6.6940781 13.517531 7.7264375 12.920719 7.7734375 12.886719 C 7.1904375 12.020719 6.225 11.900391 6 11.900391 L 5.9257812 11.900391 z M 20.519531 12.800781 C 19.026531 12.800781 17.923813 13.638063 17.882812 14.789062 L 19.148438 14.789062 C 19.252437 14.242062 19.771469 13.882813 20.480469 13.882812 C 21.340469 13.882812 21.826172 14.276 21.826172 15 L 21.826172 15.5 L 20.068359 15.59375 C 18.435359 15.69075 17.552734 16.344375 17.552734 17.484375 C 17.552734 18.635375 18.464484 19.400391 19.771484 19.400391 C 20.654484 19.400391 21.474703 18.960625 21.845703 18.265625 L 21.875 18.265625 L 21.875 19.332031 L 23.175781 19.332031 L 23.175781 14.910156 C 23.174781 13.626156 22.128531 12.800781 20.519531 12.800781 z M 23.699219 12.800781 L 26.105469 19.369141 L 25.976562 19.769531 C 25.759563 20.446531 25.406297 20.707031 24.779297 20.707031 C 24.672297 20.707031 24.469953 20.696547 24.376953 20.685547 L 24.376953 21.767578 C 24.470953 21.788578 24.800344 21.800781 24.902344 21.800781 C 26.286344 21.800781 26.937812 21.279219 27.507812 19.699219 L 30 12.800781 L 28.556641 12.800781 L 26.884766 18.130859 L 26.855469 18.130859 L 25.183594 12.800781 L 23.699219 12.800781 z M 21.826172 16.400391 L 21.820312 16.921875 C 21.820312 17.753875 21.100438 18.345703 20.148438 18.345703 C 19.399438 18.345703 18.921875 17.993172 18.921875 17.451172 C 18.921875 16.892172 19.381766 16.567625 20.259766 16.515625 L 21.826172 16.400391 z"/></svg>